HIERARCHY
ROOT Hips
{
	OFFSET -3.958830 18.904000 13.208200
	CHANNELS 6 Xposition Yposition Zposition Zrotation Yrotation Xrotation 
	JOINT LHipJoint
	{
		OFFSET 0.000000 0.000000 0.000000
		CHANNELS 3 Zrotation Yrotation Xrotation
		JOINT LeftUpLeg
		{
			OFFSET 1.800000 -1.400000 0.085000
			CHANNELS 3 Zrotation Yrotation Xrotation
			JOINT LeftLeg
			{
				OFFSET 2.215000 -6.000000 0.000000
				CHANNELS 3 Zrotation Yrotation Xrotation
				JOINT LeftFoot
				{
					OFFSET 2.500000 -6.900000 0.000000
					CHANNELS 3 Zrotation Yrotation Xrotation
					JOINT LeftToeBase
					{
						OFFSET 0.200000 -0.500000 1.950000
						CHANNELS 3 Zrotation Yrotation Xrotation
						End Site
						{
							OFFSET 0.000000 0.000000 0.000000
						}
					}
				}
			}
		}
	}
	JOINT RHipJoint
	{
		OFFSET 0.000000 0.000000 0.000000
		CHANNELS 3 Zrotation Yrotation Xrotation
		JOINT RightUpLeg
		{
			OFFSET -1.800000 -1.400000 0.085000
			CHANNELS 3 Zrotation Yrotation Xrotation
			JOINT RightLeg
			{
				OFFSET -2.215000 -6.000000 0.000000
				CHANNELS 3 Zrotation Yrotation Xrotation
				JOINT RightFoot
				{
					OFFSET -2.500000 -6.900000 0.000000
					CHANNELS 3 Zrotation Yrotation Xrotation
					JOINT RightToeBase
					{
						OFFSET -0.200000 -0.500000 1.950000
						CHANNELS 3 Zrotation Yrotation Xrotation
						End Site
						{
							OFFSET 0.000000 0.000000 0.000000
						}
					}
				}
			}
		}
	}
	JOINT LowerBack
	{
		OFFSET 0.000000 0.000000 0.000000
		CHANNELS 3 Zrotation Yrotation Xrotation
		JOINT Spine
		{
			OFFSET -0.087000 1.940000 -0.288900
			CHANNELS 3 Zrotation Yrotation Xrotation
			JOINT Spine1
			{
				OFFSET 0.000000 1.950000 0.060000
				CHANNELS 3 Zrotation Yrotation Xrotation
				JOINT Neck
				{
					OFFSET 0.000000 0.000000 0.000000
					CHANNELS 3 Zrotation Yrotation Xrotation
					JOINT Neck1
					{
						OFFSET 0.000000 1.600000 0.340000
						CHANNELS 3 Zrotation Yrotation Xrotation
						JOINT Head
						{
							OFFSET 0.000000 1.667000 -0.240000
							CHANNELS 3 Zrotation Yrotation Xrotation
							End Site
							{
								OFFSET 0.000000 0.000000 0.000000
							}
						}
					}
				}
				JOINT LeftShoulder
				{
					OFFSET 0.000000 0.000000 0.000000
					CHANNELS 3 Zrotation Yrotation Xrotation
					JOINT LeftArm
					{
						OFFSET 2.700000 1.550000 -0.730000
						CHANNELS 3 Zrotation Yrotation Xrotation
						JOINT LeftForeArm
						{
							OFFSET 5.450000 0.000000 0.000000
							CHANNELS 3 Zrotation Yrotation Xrotation
							JOINT LeftHand
							{
								OFFSET 3.450000 0.000000 0.000000
								CHANNELS 3 Zrotation Yrotation Xrotation
								JOINT LeftHandIndex1
								{
									OFFSET 0.750000 0.000000 0.000000
									CHANNELS 3 Zrotation Yrotation Xrotation
									End Site
									{
										OFFSET 0.000000 0.000000 0.000000
									}
								}
							}
						}
					}
				}
				JOINT RightShoulder
				{
					OFFSET 0.000000 0.000000 0.000000
					CHANNELS 3 Zrotation Yrotation Xrotation
					JOINT RightArm
					{
						OFFSET -2.700000 1.550000 -0.730000
						CHANNELS 3 Zrotation Yrotation Xrotation
						JOINT RightForeArm
						{
							OFFSET -5.450000 0.000000 0.000000
							CHANNELS 3 Zrotation Yrotation Xrotation
							JOINT RightHand
							{
								OFFSET -3.450000 0.000000 0.000000
								CHANNELS 3 Zrotation Yrotation Xrotation
								JOINT RightHandIndex1
								{
									OFFSET -0.750000 0.000000 0.000000
									CHANNELS 3 Zrotation Yrotation Xrotation
									End Site
									{
										OFFSET 0.000000 0.000000 0.000000
									}
								}
							}
						}
					}
				}
			}
		}
	}
}
MOTION
Frames: 9
Frame Time: 0.016667
-0.459390 17.451740 0.435820 -10.234706 9.670517 1.431490 -15.301147 12.139907 3.175697 16.806926 0.945732 -28.053821 -10.367758 9.576095 20.946461 -0.740120 6.329580 2.541008 -0.010490 -0.272470 -0.485660 18.243101 -10.833084 2.860851 -5.127265 3.360559 -12.999323 14.651270 -6.017731 12.541525 -0.022767 -4.370114 3.064911 0.205220 1.271960 0.205830 -3.466534 0.343944 -7.443117 -2.515055 4.415249 14.340546 -6.979406 8.675956 13.992797 5.374071 -2.119409 -8.587236 -2.676350 -1.889689 28.548854 6.201380 -9.412660 -4.864490 -0.159375 -11.920072 6.324511 -15.268290 -9.952024 -0.846637 147.765429 -20.600209 -85.907966 -4.213335 3.106421 0.213310 0.643940 -0.643880 0.377870 -9.251245 19.746200 -0.834100 -3.498106 38.413921 -1.640266 -17.019701 27.802031 -3.991881 1.682953 -1.476232 -0.592580 0.787910 0.504580 0.088360 
-0.463410 17.448800 0.429300 -10.258873 9.824657 1.483444 -15.311654 12.134208 3.187441 16.764055 0.968295 -28.381052 -10.236925 9.586497 21.141912 -0.743981 6.325847 2.532846 0.007820 -0.249330 -0.467730 18.236576 -10.818060 2.859336 -5.144090 3.425845 -13.075783 14.736223 -6.031171 12.653414 -0.031872 -4.370976 3.058410 0.215720 1.253530 0.206430 -3.443716 0.329845 -7.444831 -2.677276 4.495235 14.442679 -6.788340 8.749215 14.102565 5.474652 -2.089426 -8.629422 -2.604656 -2.004861 28.522966 5.999520 -9.308310 -5.275040 -0.178973 -12.126664 6.470312 -15.601811 -9.855760 -0.875929 148.091302 -20.453862 -86.628929 -4.200976 3.112229 0.217810 0.635140 -0.631860 0.376190 -9.407146 20.019238 -0.997921 -3.405368 38.814000 -1.380496 -16.529439 26.187186 -3.774224 1.704670 -1.474405 -0.584330 0.783510 0.493990 0.083680 
-0.469570 17.445800 0.418280 -10.288805 10.132292 1.467014 -15.324797 12.128007 3.195937 16.673272 1.007268 -28.837746 -9.958983 9.609299 21.577506 -0.767752 6.348678 2.508478 0.024970 -0.236490 -0.446180 18.227776 -10.798510 2.866680 -5.223013 3.511558 -13.062074 14.983421 -6.060047 12.638194 -0.047301 -4.382487 3.044453 0.225960 1.233210 0.212650 -3.416209 0.316937 -7.455518 -2.827899 4.632865 14.731587 -6.662580 8.909101 14.253438 5.653101 -2.033617 -8.654607 -2.491378 -2.188666 28.662339 5.799630 -9.236760 -6.032500 -0.262035 -12.519238 6.628289 -15.786660 -9.780732 -0.982752 148.344846 -20.436319 -87.649562 -4.190474 3.106092 0.241780 0.623570 -0.614390 0.370160 -9.644496 20.485850 -1.254159 -3.354710 39.387324 -1.012646 -15.497510 23.899537 -3.368854 1.728010 -1.455986 -0.585540 0.783940 0.492800 0.070100 
-0.475180 17.439690 0.404850 -10.355561 10.680542 1.451735 -15.338311 12.106801 3.230098 16.613067 1.017679 -29.499938 -9.758608 9.688427 22.161085 -0.769367 6.395828 2.472903 0.037070 -0.226680 -0.433620 18.220087 -10.761928 2.878001 -5.368320 3.627895 -13.055057 15.428475 -6.125435 12.624347 -0.066787 -4.409838 3.023352 0.227260 1.210090 0.221780 -3.392579 0.290195 -7.491873 -2.839118 4.709646 15.153213 -6.594130 9.005819 14.385129 5.775101 -1.971341 -8.767001 -2.397183 -2.393201 28.854213 5.855340 -9.284930 -6.610360 -0.255325 -12.981007 6.856655 -16.065969 -9.710082 -1.113194 148.555793 -20.454981 -88.728527 -4.174931 3.110041 0.259820 0.608070 -0.594590 0.365370 -9.881804 20.971113 -1.402362 -3.378826 39.557374 -0.752302 -14.357926 22.452583 -2.964894 1.749391 -1.441009 -0.576800 0.772740 0.490090 0.063760 
-0.481560 17.433590 0.390630 -10.370787 11.227754 1.293015 -15.355164 12.108006 3.257084 16.528120 1.020636 -29.996060 -9.569063 9.760914 22.722534 -0.764160 6.435588 2.440577 0.056060 -0.214690 -0.403270 18.205314 -10.721959 2.888305 -5.603630 3.744428 -12.986205 15.896832 -6.210815 12.682433 -0.092643 -4.440801 2.996222 0.224860 1.175210 0.230220 -3.354087 0.223329 -7.526769 -2.939106 4.817250 15.773475 -6.404845 9.126992 14.514066 5.821545 -1.896847 -8.849186 -2.315514 -2.663359 29.123016 5.899830 -9.322220 -7.303890 -0.369371 -13.335419 6.989012 -16.144358 -9.723088 -1.215510 148.746539 -20.511173 -89.670190 -4.152648 3.113235 0.281430 0.583830 -0.568540 0.355650 -9.865702 21.369076 -1.438851 -3.567685 39.388093 -0.849236 -13.655742 22.116674 -2.725159 1.763573 -1.429351 -0.562930 0.756610 0.480360 0.052990 
-0.488750 17.429160 0.377430 -10.326825 11.883997 1.102864 -15.372295 12.120678 3.288198 16.383343 0.978156 -30.480157 -9.367775 9.834645 23.343590 -0.757717 6.476012 2.408999 0.064320 -0.210040 -0.382870 18.187591 -10.683626 2.894354 -5.876444 3.864747 -12.968583 16.330817 -6.335171 12.919935 -0.113100 -4.477697 2.973507 0.218510 1.143070 0.232320 -3.312947 0.134909 -7.563564 -3.083802 4.874445 16.443609 -6.201137 9.173022 14.593717 5.809844 -1.770477 -8.957445 -2.173024 -2.917945 29.471796 5.939290 -9.329620 -7.876570 -0.506411 -13.687357 7.115428 -16.164397 -9.621410 -1.374922 148.883779 -20.626235 -90.580168 -4.133432 3.107349 0.301580 0.562530 -0.546180 0.343960 -9.723127 21.702906 -1.369488 -3.660876 39.046834 -1.043702 -13.248834 22.288853 -2.575967 1.768633 -1.411799 -0.553490 0.743820 0.475010 0.042130 
-0.493460 17.422890 0.367740 -10.342124 12.438305 0.863750 -15.383483 12.116931 3.323416 16.392271 0.964736 -30.841233 -9.337120 9.988268 23.980278 -0.756082 6.567239 2.363823 0.075200 -0.207430 -0.358360 18.177611 -10.651249 2.897084 -6.135518 4.013622 -12.992638 16.762093 -6.498369 13.327684 -0.136305 -4.529449 2.944277 0.215890 1.118560 0.234620 -3.290261 0.084521 -7.602050 -3.006170 4.899819 17.036026 -6.019737 9.202627 14.682314 5.798454 -1.678428 -9.018318 -2.071168 -3.200310 29.705929 5.918680 -9.369550 -8.542390 -0.559950 -13.829444 7.178742 -16.375655 -9.622276 -1.404244 148.979353 -20.813808 -91.487535 -4.118388 3.096005 0.327850 0.544100 -0.526780 0.334630 -9.661756 21.824554 -1.313896 -3.501377 38.772452 -1.150090 -13.100660 22.509882 -2.511534 1.766264 -1.394479 -0.552640 0.739840 0.470710 0.028840 
-0.496990 17.416700 0.363250 -10.303011 12.877221 0.627223 -15.384714 12.103939 3.347294 16.411691 0.943548 -31.045216 -9.363532 10.150981 24.545466 -0.756276 6.661067 2.319312 0.075010 -0.213060 -0.349560 18.176032 -10.634338 2.902294 -6.476158 4.174067 -13.077639 17.233527 -6.697844 13.832152 -0.152763 -4.603015 2.908525 0.213890 1.104800 0.232570 -3.293562 0.079911 -7.634329 -2.846762 4.874709 17.438434 -5.982577 9.179550 14.733895 5.773110 -1.626162 -9.028210 -2.010498 -3.301440 29.920500 5.950540 -9.362270 -8.906430 -0.545767 -13.856178 7.219812 -16.540936 -9.575914 -1.394759 149.018399 -21.044383 -92.248170 -4.113159 3.087140 0.345190 0.533100 -0.519050 0.324850 -9.630821 21.814596 -1.311512 -3.059640 38.753936 -1.034566 -12.970281 22.565941 -2.463900 1.763460 -1.377318 -0.557720 0.739050 0.475490 0.018270 
-0.496600 17.409880 0.363010 -10.298125 13.260416 0.319010 -15.377032 12.091294 3.354403 16.487450 0.929391 -31.013838 -9.416322 10.284482 24.973122 -0.747316 6.736979 2.285125 0.078150 -0.208780 -0.342370 18.181060 -10.639164 2.907182 -6.793379 4.305302 -13.119671 17.625218 -6.916192 14.413541 -0.171752 -4.690101 2.869163 0.214400 1.097450 0.237330 -3.320102 0.116177 -7.658880 -2.486407 4.759773 17.751546 -6.081988 9.095153 14.822393 5.802755 -1.535984 -9.006725 -1.853072 -3.323093 30.004672 5.930140 -9.262310 -9.157760 -0.572748 -13.798944 7.207081 -16.681848 -9.631808 -1.341709 149.043911 -21.247661 -92.846920 -4.114998 3.083715 0.350670 0.529580 -0.510650 0.319340 -9.655646 21.646296 -1.288638 -2.391605 38.755224 -0.859323 -13.159553 22.752022 -2.531243 1.760052 -1.370382 -0.553950 0.735890 0.475920 0.015950 
